<svg xmlns="http://www.w3.org/2000/svg" xmlns:xlink="http://www.w3.org/1999/xlink" viewBox="0 0 469.50541 512.00362"><defs><style>.a{fill:#fff;}.b{clip-path:url(#a);}.c{fill:#f37748;}</style><clipPath id="a"><circle class="a" cx="234.7527" cy="236.00012" r="234.7527"/></clipPath></defs><title>logo</title><circle class="a" cx="234.7527" cy="236.00012" r="234.7527"/><g class="b"><path class="c" d="M379.1407,175.78712q-2.5605-5.11948-7.68-5.12h-100.693l99.84-157.867a7.74925,7.74925,0,0,0,0-8.533,8.96268,8.96268,0,0,0-7.68-4.267H226.3947a8.96263,8.96263,0,0,0-7.68,4.267l-128,256a7.74924,7.74924,0,0,0,0,8.533,10.1833,10.1833,0,0,0,7.68,4.267h87.893l-95.573,227.84c-1.707,3.413,0,7.68,3.413,10.24.853.853,2.56.853,4.267.853a9.68937,9.68937,0,0,0,6.827-2.56l273.067-324.267A9.15555,9.15555,0,0,0,379.1407,175.78712Z"/></g></svg>