<svg xmlns="http://www.w3.org/2000/svg" viewBox="0 0 469.505 469.505"><path d="m356.437 33.96-85.67 135.46h100.694q5.12 0 7.68 5.12a9.155 9.155 0 0 1-.852 9.386L150.825 454.039a234.169 234.169 0 0 0 83.928 15.466c129.65 0 234.752-105.102 234.752-234.752A234.619 234.619 0 0 0 356.437 33.96ZM98.395 271.82a10.183 10.183 0 0 1-7.68-4.267 7.75 7.75 0 0 1 0-8.533l128-256A8.942 8.942 0 0 1 221.187.4C97.851 7.429 0 109.657 0 234.753a234.642 234.642 0 0 0 116.707 202.943l69.58-165.876Z" style="fill:#fff"/><path d="M379.14 174.54q-2.56-5.12-7.68-5.12H270.769l85.669-135.46A233.658 233.658 0 0 0 234.753 0c-4.555 0-9.075.144-13.566.4a8.942 8.942 0 0 0-2.472 2.62l-128 256a7.75 7.75 0 0 0 0 8.533 10.183 10.183 0 0 0 7.68 4.267h87.893l-69.581 165.876a233.711 233.711 0 0 0 34.118 16.343l227.464-270.113a9.155 9.155 0 0 0 .852-9.386Z" style="fill:none"/></svg>