<svg xmlns="http://www.w3.org/2000/svg" viewBox="0 0 469.505 469.505"><path d="M356.437 33.96l-85.67 135.46h100.694q5.12 0 7.68 5.12a9.155 9.155 0 01-.852 9.386L150.825 454.039a234.169 234.169 0 0083.928 15.466c129.65 0 234.752-105.102 234.752-234.752A234.619 234.619 0 00356.437 33.96zM98.395 271.82a10.183 10.183 0 01-7.68-4.267 7.75 7.75 0 010-8.533l128-256A8.942 8.942 0 01221.187.4C97.851 7.429 0 109.657 0 234.753a234.642 234.642 0 00116.707 202.943l69.58-165.876z" fill="#fff"/><path d="M379.14 174.54q-2.56-5.12-7.68-5.12H270.769l85.669-135.46A233.658 233.658 0 00234.753 0c-4.555 0-9.075.144-13.566.4a8.942 8.942 0 00-2.472 2.62l-128 256a7.75 7.75 0 000 8.533 10.183 10.183 0 007.68 4.267h87.893l-69.581 165.876a233.711 233.711 0 0034.118 16.343l227.464-270.113a9.155 9.155 0 00.852-9.386z" fill="none"/></svg>