<svg xmlns="http://www.w3.org/2000/svg" viewBox="0 0 512 512"><path d="M400.388 175.787q-2.56-5.12-7.68-5.12H292.015L391.855 12.8a7.75 7.75 0 0 0 0-8.533A8.963 8.963 0 0 0 384.175 0H247.642a8.963 8.963 0 0 0-7.68 4.267l-128 256a7.75 7.75 0 0 0 0 8.533 10.183 10.183 0 0 0 7.68 4.267h87.893l-95.573 227.84c-1.707 3.413 0 7.68 3.413 10.24.853.853 2.56.853 4.267.853a9.69 9.69 0 0 0 6.827-2.56l273.067-324.267a9.156 9.156 0 0 0 .852-9.386zm-250.88 279.04l78.507-187.733a8.297 8.297 0 0 0-.853-7.68c-1.707-1.707-4.267-3.413-6.827-3.413h-87.04L252.762 17.067h116.053L268.122 174.933a7.75 7.75 0 0 0 0 8.533 8.963 8.963 0 0 0 7.68 4.267h98.987z" fill="#fff"/></svg>