<svg xmlns="http://www.w3.org/2000/svg" viewBox="0 0 469.505 512.004"><defs><style>.a{fill:#fff}</style><clipPath id="a"><circle class="a" cx="234.753" cy="236" r="234.753"/></clipPath></defs><circle class="a" cx="234.753" cy="236" r="234.753"/><g clip-path="url(#a)"><path d="M379.14 175.787q-2.56-5.12-7.68-5.12H270.769L370.608 12.8a7.75 7.75 0 0 0 0-8.533A8.963 8.963 0 0 0 362.928 0H226.395a8.963 8.963 0 0 0-7.68 4.267l-128 256a7.75 7.75 0 0 0 0 8.533 10.183 10.183 0 0 0 7.68 4.267h87.893l-95.573 227.84c-1.707 3.413 0 7.68 3.413 10.24.853.853 2.56.853 4.267.853a9.69 9.69 0 0 0 6.827-2.56l273.067-324.267a9.156 9.156 0 0 0 .852-9.386z" fill="#f37748"/></g></svg>