<svg xmlns="http://www.w3.org/2000/svg" viewBox="0 0 469.50543 469.50537"><defs><style>.a{fill:#fff;}.b{fill:none;}</style></defs><title>logo</title><path class="a" d="M356.43665,33.96,270.7677,169.41968h100.693q5.11955.00054,7.68,5.12a9.15544,9.15544,0,0,1-.852,9.386L150.82452,454.03943a234.16853,234.16853,0,0,0,83.92817,15.46594c129.65033,0,234.75274-105.10235,234.75274-234.75268A234.61905,234.61905,0,0,0,356.43665,33.96Z"/><path class="a" d="M98.39471,271.81964a10.18318,10.18318,0,0,1-7.68-4.267,7.74921,7.74921,0,0,1,0-8.533l128-255.99994A8.9422,8.9422,0,0,1,221.18713.3996C97.85144,7.42871,0,109.65692,0,234.75269A234.64246,234.64246,0,0,0,116.70679,437.69617l69.58093-165.87653Z"/><path class="b" d="M379.14069,174.53967q-2.56045-5.11944-7.68-5.12H270.7677L356.43665,33.96A233.65754,233.65754,0,0,0,234.75269,0c-4.55457,0-9.07508.14368-13.56556.3996a8.9422,8.9422,0,0,0-2.47241,2.62011l-128,255.99994a7.74921,7.74921,0,0,0,0,8.533,10.18318,10.18318,0,0,0,7.68,4.267h87.893L116.70679,437.69617a233.71134,233.71134,0,0,0,34.11773,16.34326L378.2887,183.92566A9.15544,9.15544,0,0,0,379.14069,174.53967Z"/></svg>