<svg xmlns="http://www.w3.org/2000/svg" viewBox="0 0 512 512"><defs><style>.a{fill:#fff;}</style></defs><title>logo</title><path class="a" d="M400.388,175.787q-2.5605-5.11949-7.68-5.12H292.015L391.855,12.8a7.74929,7.74929,0,0,0,0-8.533A8.9627,8.9627,0,0,0,384.175,0H247.642a8.96265,8.96265,0,0,0-7.68,4.267l-128,256a7.74924,7.74924,0,0,0,0,8.533,10.18325,10.18325,0,0,0,7.68,4.267h87.893l-95.573,227.84c-1.707,3.413,0,7.68,3.413,10.24.853.853,2.56.853,4.267.853a9.68952,9.68952,0,0,0,6.827-2.56L399.536,185.173A9.15559,9.15559,0,0,0,400.388,175.787Zm-250.88,279.04,78.507-187.733a8.29726,8.29726,0,0,0-.853-7.68c-1.707-1.707-4.267-3.413-6.827-3.413h-87.04L252.762,17.067H368.815L268.122,174.933a7.74929,7.74929,0,0,0,0,8.533,8.96269,8.96269,0,0,0,7.68,4.267h98.987Z"/></svg>